<svg xmlns="http://www.w3.org/2000/svg" viewBox="0 0 32 32">
  <!-- Pixel art style rocket -->
  <rect width="32" height="32" fill="#0f172a"/>
  
  <!-- Rocket body -->
  <rect x="14" y="8" width="4" height="12" fill="#06b6d4"/>
  <rect x="13" y="7" width="6" height="1" fill="#06b6d4"/>
  <rect x="12" y="6" width="8" height="1" fill="#06b6d4"/>
  <rect x="14" y="5" width="4" height="1" fill="#06b6d4"/>
  <rect x="15" y="4" width="2" height="1" fill="#06b6d4"/>
  
  <!-- Rocket window -->
  <rect x="15" y="10" width="2" height="2" fill="#fbbf24"/>
  
  <!-- Rocket fins -->
  <rect x="11" y="16" width="3" height="4" fill="#8b5cf6"/>
  <rect x="18" y="16" width="3" height="4" fill="#8b5cf6"/>
  
  <!-- Rocket flames -->
  <rect x="14" y="20" width="4" height="2" fill="#f97316"/>
  <rect x="13" y="22" width="6" height="2" fill="#fbbf24"/>
  <rect x="14" y="24" width="4" height="2" fill="#f97316"/>
  
  <!-- Stars -->
  <rect x="6" y="8" width="1" height="1" fill="#fbbf24"/>
  <rect x="24" y="12" width="1" height="1" fill="#fbbf24"/>
  <rect x="8" y="20" width="1" height="1" fill="#fbbf24"/>
  <rect x="22" y="24" width="1" height="1" fill="#fbbf24"/>
</svg>
